<svg width="650" height="513" viewBox="0 0 650 513" fill="none" xmlns="http://www.w3.org/2000/svg">
<g clip-path="url(#clip0_527_996)">
<path d="M100.689 373.961L59.4981 359.576C54.9632 337.124 55.9801 313.905 62.4604 291.936C78.0868 329.539 126.825 340.052 153.886 370.487C162.253 380.044 168.361 391.361 171.758 403.599C175.155 415.836 175.753 428.681 173.508 441.181L181.395 471.091C161.018 468.755 141.389 462.032 123.862 451.383C106.334 440.735 91.3249 426.415 79.8675 409.41C73.5345 399.806 68.4365 389.444 64.694 378.568C82.4748 377.307 100.689 373.961 100.689 373.961Z" fill="#F2F2F2"/>
<path d="M147.98 284.154L119.215 251.361C126.329 229.588 138.652 209.88 155.115 193.947C150.192 234.367 187.432 267.504 195.992 307.313C198.566 319.75 198.308 332.606 195.235 344.929C192.163 357.252 186.356 368.726 178.244 378.501L170.374 408.415C153.789 396.353 140.017 380.84 130.008 362.945C119.998 345.051 113.989 325.2 112.394 304.76C111.613 293.285 112.281 281.757 114.382 270.448C130.478 278.102 147.98 284.154 147.98 284.154Z" fill="#F2F2F2"/>
<path d="M388.313 389.272H180.334C174.223 389.272 169.254 390.502 169.254 392.022V473.332H399.422V392.022C399.422 390.502 394.453 389.272 388.313 389.272Z" fill="#F2F2F2"/>
<path d="M643.558 474.105L1.02178 474.369C0.750792 474.369 0.490903 474.261 0.299282 474.07C0.107662 473.878 0 473.618 0 473.347C0 473.077 0.107662 472.817 0.299282 472.625C0.490903 472.434 0.750792 472.326 1.02178 472.326L643.558 472.062C643.828 472.063 644.088 472.171 644.279 472.363C644.47 472.554 644.577 472.813 644.577 473.084C644.577 473.354 644.47 473.613 644.279 473.805C644.088 473.996 643.828 474.104 643.558 474.105Z" fill="#CACACA"/>
<path d="M232.798 468.382L230.854 484.208L291.001 499.232L293.87 475.874L232.798 468.382Z" fill="#9E616A"/>
<path d="M244.277 464.547L242.682 490.016L231.845 488.687L212.283 510.687C211.317 511.774 210.029 512.524 208.607 512.827C207.184 513.13 205.702 512.97 204.377 512.372C203.051 511.774 201.952 510.767 201.239 509.5C200.527 508.233 200.238 506.771 200.415 505.328L204.111 475.227L215.469 471.354L204.997 468.013L206.391 456.663L244.277 464.547Z" fill="#2F2E41"/>
<path d="M408.51 476.173L423.989 480.028L446.235 422.188L423.389 416.497L408.51 476.173Z" fill="#9E616A"/>
<path d="M448.019 501.68L428.556 479.593L431.199 469L428.444 468.485H428.427L411.23 465.277L406.098 464.316L393.655 500.942L404.76 503.713L409.351 493.729L411.273 502.898L411.814 505.463L441.257 512.796C442.667 513.148 444.153 513.039 445.498 512.487C446.842 511.934 447.975 510.967 448.73 509.725C449.485 508.484 449.823 507.033 449.696 505.586C449.568 504.138 448.98 502.77 448.019 501.68Z" fill="#2F2E41"/>
<path d="M278.629 470.158L284.242 469.274C278.217 475.545 272.434 479.687 266.941 480.974L269.602 471.573L278.629 470.158Z" fill="#2F2E41"/>
<path d="M442.569 441.929C437.257 453.801 433.429 461.4 433.429 461.4L431.533 460.405L426.539 457.789L414.645 451.553L412.602 450.481L413.186 439.142L415.777 388.998L416.876 367.863L371.54 391.811L317.897 420.151C315.7 423.977 313.518 427.699 311.35 431.319L274.904 406.333L311.89 352.389L333.447 342.319L328.796 341.419C329.985 339.701 331.329 338.096 332.812 336.624L334.442 335.706C334.442 335.706 437.016 279.232 466.528 308.189C469.073 310.779 470.983 313.924 472.106 317.376C482.224 346.419 456.951 409.815 442.569 441.929Z" fill="#2F2E41"/>
<path d="M420 495.05C417.79 498.351 414.79 501.049 411.272 502.898C408.292 504.527 405.137 505.813 401.867 506.732C358.376 519.435 263.199 494.192 263.199 494.192L266.941 480.974L269.601 471.573L278.629 470.158L284.241 469.274L351.365 458.75L332.872 446.072L311.35 431.319L274.904 406.333L231.225 386.699C180.594 346.385 222.987 301.181 222.987 301.181L251.322 281.11L260.522 274.591L317.039 303.497L333.447 342.319L338.493 354.25L371.54 391.811L413.186 439.142L413.512 439.51C414.716 440.424 415.849 441.428 416.902 442.513C417.288 442.89 417.691 443.31 418.103 443.765C421.846 447.813 424.717 452.586 426.539 457.789C427.722 461.22 428.364 464.814 428.444 468.442C428.448 468.449 428.45 468.456 428.45 468.464C428.45 468.471 428.448 468.479 428.444 468.485C428.632 476.042 426.461 484.954 420 495.05Z" fill="#2F2E41"/>
<path d="M203.614 320.261C201.36 319.581 200.214 318.752 200.004 317.656C199.697 316.046 201.508 314.61 203.605 312.947C205.067 311.789 208.925 309.772 207.515 309.151C186.132 299.741 238.118 166.139 253.202 150.958C256.267 147.873 255.902 141.611 259.987 136.04C271.145 120.824 280.935 118.068 300.437 112.577C302.02 112.131 303.669 111.664 305.384 111.176C307.604 110.543 305.264 116.846 306.421 112.62C307.707 107.924 309.036 103.067 312.23 100.745L312.438 100.593L312.694 100.61C318.604 101.001 337.898 104.238 347.794 111.221L347.93 111.319L348.01 111.466C349.834 114.867 348.544 119.999 347.296 124.962C346.271 129.036 348.737 122.59 349.718 124.685C357.218 140.691 370.113 144.315 370.244 144.351L370.884 144.525L370.757 145.175C374.128 162.645 351.006 216.772 346.008 253.219C340.93 290.248 369.879 331.952 327.337 324.941C327.435 325.263 343.038 357.281 342.784 357.536C338.916 361.408 212.109 322.825 203.614 320.261Z" fill="#E6E6E6"/>
<path d="M485.086 123.821C485.393 125.571 485.313 127.368 484.85 129.084C484.388 130.8 483.555 132.394 482.409 133.753C481.264 135.113 479.834 136.205 478.221 136.952C476.608 137.7 474.85 138.084 473.072 138.079L458.788 178.854L445.178 160.996L460.828 125.013C461.035 122.028 462.329 119.222 464.467 117.127C466.605 115.033 469.437 113.795 472.427 113.648C475.417 113.501 478.357 114.455 480.69 116.33C483.023 118.205 484.587 120.87 485.086 123.821Z" fill="#9E616A"/>
<path d="M422.226 237.448L396.335 231.853C349.637 217.073 333.624 198.833 328.404 186.131C322.833 172.578 327.91 162.658 328.129 162.244L328.262 162.065L345.01 145.773C347.138 143.704 349.681 142.11 352.472 141.097C355.262 140.085 358.236 139.677 361.196 139.901C364.156 140.124 367.035 140.974 369.642 142.394C372.248 143.814 374.523 145.772 376.315 148.137L410.327 193.025L426.076 171.697L433.715 165.588L437.835 154.043L453.639 136.859L471.936 145.321L465.047 186.874L455.83 192.507L455.395 198.624L455.243 198.803L422.226 237.448Z" fill="#E6E6E6"/>
<path d="M292.509 367.664C292.382 367.664 292.254 367.662 292.125 367.657C290.621 367.602 289.152 367.186 287.843 366.442C286.535 365.698 285.426 364.649 284.61 363.385C278.5 354.256 271.001 346.137 262.385 339.321C257.169 335.154 251.718 331.28 246.448 327.532C232.85 317.868 220.044 308.766 212.936 296.19C197.437 268.766 215.689 230.569 241.764 213.438C271.01 194.226 309.478 191.212 346.692 190.817C350.56 190.776 354.43 190.756 358.302 190.756C425.353 190.782 492.264 196.897 558.208 209.027C580.136 213.07 603.09 218.024 621.534 230.046C639.87 241.997 651.015 260.816 649.927 277.992C648.34 303.067 621.747 321.802 597.532 326.701C574.451 331.366 550.474 328.213 525.09 324.874C519.486 324.138 513.692 323.376 507.962 322.714C445.689 315.519 328.707 337.694 323.758 338.642L318.848 339.582L299.796 364.087C298.939 365.204 297.836 366.108 296.572 366.728C295.308 367.349 293.918 367.669 292.509 367.664Z" fill="#F7CF7C"/>
<path d="M569.814 245.343H306.61C305.093 245.341 303.638 244.737 302.565 243.664C301.493 242.591 300.891 241.136 300.891 239.619C300.891 238.102 301.493 236.647 302.565 235.574C303.638 234.501 305.093 233.897 306.61 233.895H569.814C571.331 233.897 572.786 234.501 573.859 235.574C574.931 236.647 575.533 238.102 575.533 239.619C575.533 241.136 574.931 242.591 573.859 243.664C572.786 244.737 571.331 245.341 569.814 245.343Z" fill="white"/>
<path d="M569.814 280.478H306.61C305.858 280.48 305.113 280.333 304.417 280.046C303.722 279.759 303.09 279.338 302.557 278.807C302.024 278.276 301.601 277.646 301.313 276.951C301.024 276.257 300.875 275.512 300.874 274.76C300.873 274.008 301.021 273.264 301.308 272.569C301.595 271.874 302.017 271.242 302.548 270.71C303.08 270.178 303.711 269.755 304.406 269.467C305.101 269.179 305.846 269.031 306.598 269.03H569.814C571.331 269.032 572.786 269.636 573.859 270.709C574.931 271.783 575.534 273.237 575.534 274.754C575.534 276.271 574.931 277.726 573.859 278.799C572.786 279.873 571.331 280.477 569.814 280.478Z" fill="white"/>
<path d="M337.283 315.612H306.61C305.093 315.61 303.638 315.006 302.565 313.933C301.493 312.86 300.891 311.405 300.891 309.888C300.891 308.371 301.493 306.916 302.565 305.843C303.638 304.77 305.093 304.166 306.61 304.164H337.283C338.8 304.166 340.255 304.77 341.328 305.843C342.4 306.916 343.002 308.371 343.002 309.888C343.002 311.405 342.4 312.86 341.328 313.933C340.255 315.006 338.8 315.61 337.283 315.612Z" fill="white"/>
<path d="M485.567 125.417C507.218 125.417 524.77 107.874 524.77 86.2328C524.77 64.5921 507.218 47.0488 485.567 47.0488C463.917 47.0488 446.365 64.5921 446.365 86.2328C446.365 107.874 463.917 125.417 485.567 125.417Z" fill="white"/>
<path d="M485.567 125.895C477.719 125.895 470.048 123.569 463.522 119.211C456.997 114.853 451.911 108.659 448.907 101.411C445.904 94.164 445.118 86.1892 446.649 78.4955C448.18 70.8018 451.959 63.7346 457.509 58.1877C463.058 52.6408 470.129 48.8634 477.826 47.3329C485.523 45.8025 493.502 46.588 500.752 49.5899C508.003 52.5918 514.2 57.6754 518.561 64.1978C522.921 70.7202 525.248 78.3885 525.248 86.2329C525.236 96.7484 521.052 106.83 513.613 114.265C506.174 121.701 496.088 125.884 485.567 125.895Z" fill="#3F3D56"/>
<path d="M482.633 101.893C482.549 101.893 482.466 101.89 482.382 101.886C481.644 101.851 480.922 101.656 480.266 101.315C479.61 100.975 479.035 100.496 478.582 99.9128L472.03 91.4941C471.617 90.9627 471.312 90.3551 471.133 89.7059C470.954 89.0567 470.905 88.3786 470.989 87.7105C471.072 87.0424 471.287 86.3972 471.62 85.8119C471.953 85.2266 472.398 84.7126 472.929 84.2992L473.165 84.1158C473.697 83.7021 474.305 83.3971 474.955 83.2183C475.604 83.0396 476.283 82.9906 476.951 83.0741C477.62 83.1576 478.266 83.372 478.851 83.705C479.437 84.0381 479.951 84.4832 480.365 85.015C480.696 85.4397 481.114 85.788 481.592 86.036C482.07 86.284 482.596 86.4259 483.134 86.4521C483.672 86.4783 484.209 86.3881 484.709 86.1877C485.209 85.9872 485.659 85.6813 486.03 85.2908L499.332 71.2542C500.268 70.2684 501.558 69.6941 502.917 69.6572C504.277 69.6202 505.595 70.1237 506.584 71.0572L506.802 71.2651C507.291 71.728 507.684 72.2828 507.959 72.8976C508.233 73.5125 508.384 74.1754 508.402 74.8485C508.42 75.5215 508.305 76.1916 508.064 76.8203C507.823 77.4491 507.461 78.0242 506.997 78.5129L486.355 100.292C485.876 100.798 485.299 101.201 484.659 101.476C484.019 101.751 483.329 101.893 482.633 101.893Z" fill="white"/>
<path d="M283.96 289.263C282.206 288.973 280.536 288.302 279.07 287.297C277.603 286.292 276.374 284.978 275.471 283.448C274.567 281.917 274.01 280.207 273.839 278.438C273.668 276.669 273.887 274.884 274.481 273.209L240.724 246.229L262.091 239.31L290.871 265.991C293.621 267.175 295.84 269.325 297.109 272.035C298.379 274.745 298.609 277.827 297.757 280.695C296.905 283.564 295.03 286.02 292.487 287.599C289.944 289.178 286.91 289.77 283.96 289.263Z" fill="#9E616A"/>
<path d="M197.527 192.334L211.387 169.771C240.811 130.627 263.334 121.57 277.054 120.855C291.693 120.091 299.375 128.165 299.693 128.51L299.818 128.694L309.648 149.887C310.896 152.579 311.558 155.506 311.589 158.473C311.62 161.44 311.02 164.38 309.828 167.097C308.636 169.815 306.88 172.248 304.676 174.236C302.472 176.224 299.871 177.72 297.044 178.627L243.404 195.83L258.318 217.749L261.554 226.978L271.087 234.689L282.072 255.286L268.022 269.738L231.081 249.474L228.817 238.915L223.186 236.478L223.068 236.276L197.527 192.334Z" fill="#E6E6E6"/>
<path d="M388.382 102.952L388.417 102.955C390.271 103.115 392.113 102.533 393.537 101.335C394.962 100.138 395.852 98.4243 396.012 96.5712L399.406 57.5786C400.021 50.5933 399.224 43.5558 397.063 36.8843C392.828 23.8638 383.73 12.9789 371.664 6.49825C365.433 3.16094 358.592 1.11905 351.551 0.495633C322.746 -2.0548 312.266 4.00766 294.774 48.0097C277.283 92.0118 291.375 87.0617 291.375 87.0617C291.292 88.0014 291.4 88.9482 291.691 89.8455C292.262 91.5963 293.488 93.0587 295.113 93.9273C295.947 94.372 296.861 94.6446 297.802 94.7291C331.892 103.15 366.292 112.024 388.388 102.953L388.382 102.952Z" fill="#2F2E41"/>
<path d="M324.602 37.5997C320.372 43.9459 318.119 51.4027 318.126 59.0284C318.133 66.6541 320.401 74.1066 324.644 80.4447C328.886 86.7828 334.912 91.7221 341.961 94.6389C349.01 97.5557 356.766 98.3191 364.249 96.8326C369.203 95.8648 373.915 93.9241 378.113 91.1229C382.31 88.3217 385.91 84.7158 388.704 80.514C392.925 74.1699 395.172 66.7187 395.163 59.0998C395.153 51.4808 392.887 44.0353 388.649 37.702C384.412 31.3687 378.394 26.4311 371.353 23.5118C364.312 20.5926 356.564 19.8223 349.086 21.2982C344.129 22.2605 339.412 24.1972 335.209 26.9957C331.006 29.7943 327.401 33.3991 324.602 37.6011L324.602 37.5997Z" fill="#9E616A"/>
<path d="M411.502 61.8281C411.988 56.3035 411.358 50.7377 409.649 45.4613C409.175 32.5297 405.343 20.8392 389.564 21.4356C384.667 18.8152 379.294 17.2059 373.762 16.7036L365.958 15.9855C365.87 15.9774 365.783 15.9695 365.695 15.962C354.775 15.0191 343.928 18.4508 335.54 25.5019C327.151 32.5531 321.909 42.6461 320.965 53.5608L320.897 54.3418L337.409 55.8448L344.41 40.6071L344.165 56.4629L352.693 57.2425L356.223 49.5548L356.102 57.5492C368.83 68.6047 388.022 69.0614 411.427 62.6099L411.502 61.8281Z" fill="#2F2E41"/>
<path d="M358.965 99.1561C359.114 100.439 358.899 101.738 358.346 102.906C358.068 103.503 357.707 104.059 357.274 104.557C356.903 104.981 356.484 105.359 356.024 105.685C354.664 106.645 353.005 107.09 351.347 106.938C351.243 106.928 351.14 106.916 351.037 106.902C350.934 106.889 350.831 106.872 350.729 106.854C350.625 106.836 350.522 106.815 350.42 106.792C350.318 106.768 350.215 106.743 350.113 106.715L344.343 105.141L337.769 87.1953L336.394 102.989L310.158 95.8754L315.992 28.8521L360.656 32.9522L359.44 34.1384C355.399 38.1224 352.536 43.1436 351.166 48.6493C349.807 54.2282 349.414 59.9987 350.005 65.7102C350.56 71.4858 351.669 77.1947 353.315 82.7584C354.749 87.6853 356.466 92.5254 358.457 97.2548C358.714 97.8617 358.885 98.5017 358.965 99.1561Z" fill="#2F2E41"/>
</g>
<defs>
<clipPath id="clip0_527_996">
<rect width="650" height="513" fill="white"/>
</clipPath>
</defs>
</svg>
